<?xml version="1.0" encoding="UTF-8" standalone="no"?>
<svg
   version="1.0"
   width="171.000000pt"
   height="238.000000pt"
   viewBox="0 0 171.000000 238.000000"
   preserveAspectRatio="xMidYMid meet"
   id="svg2"
   sodipodi:docname="fshare.svg"
   inkscape:version="1.4.4 (dcaf3e7d9e, 2026-05-05)"
   xmlns:inkscape="http://www.inkscape.org/namespaces/inkscape"
   xmlns:sodipodi="http://sodipodi.sourceforge.net/DTD/sodipodi-0.dtd"
   xmlns:xlink="http://www.w3.org/1999/xlink"
   xmlns="http://www.w3.org/2000/svg"
   xmlns:svg="http://www.w3.org/2000/svg">
  <defs
     id="defs2">
    <linearGradient
       id="swatch3"
       inkscape:swatch="solid">
      <stop
         style="stop-color:#ac9d93;stop-opacity:1;"
         offset="0"
         id="stop3" />
    </linearGradient>
    <linearGradient
       id="swatch2"
       inkscape:swatch="solid">
      <stop
         style="stop-color:#000000;stop-opacity:1;"
         offset="0"
         id="stop2" />
    </linearGradient>
    <linearGradient
       inkscape:collect="always"
       xlink:href="#swatch3"
       id="linearGradient3"
       x1="406.22433"
       y1="-395.60425"
       x2="1310.5497"
       y2="-395.60425"
       gradientUnits="userSpaceOnUse"
       gradientTransform="matrix(0.8901369,0,0,0.88308882,94.305053,-46.250556)" />
  </defs>
  <sodipodi:namedview
     id="namedview2"
     pagecolor="#ffffff"
     bordercolor="#000000"
     borderopacity="0.25"
     inkscape:showpageshadow="2"
     inkscape:pageopacity="0.0"
     inkscape:pagecheckerboard="0"
     inkscape:deskcolor="#d1d1d1"
     inkscape:document-units="pt"
     inkscape:zoom="5.4453781"
     inkscape:cx="139.29244"
     inkscape:cy="254.25231"
     inkscape:window-width="1920"
     inkscape:window-height="1053"
     inkscape:window-x="0"
     inkscape:window-y="27"
     inkscape:window-maximized="1"
     inkscape:current-layer="g2" />
  <g
     transform="translate(0.000000,238.000000) scale(0.100000,-0.100000)"
     fill="#000000"
     stroke="none"
     id="g2">
    <path
       d="M742 2370 c-279 -39 -529 -221 -652 -475 -51 -105 -70 -179 -77 -300 l-6 -101 322 -319 c270 -268 328 -321 354 -323 31 -4 31 -3 -39 70 -40 40 -185 185 -323 322 -282 280 -266 254 -176 316 94 65 216 62 321 -9 54 -36 57 -41 96 -142 77 -203 177 -475 189 -516 10 -36 16 -43 37 -43 18 0 23 4 19 18 -7 23 -102 282 -175 475 l-60 158 36 24 c64 42 184 68 282 62 92 -5 193 -36 234 -71 l24 -21 -45 -115 c-64 -164 -140 -362 -174 -452 l-28 -78 23 0 c21 0 31 22 115 248 144 384 153 405 180 430 94 83 221 101 326 47 32 -16 67 -43 79 -58 l20 -28 -319 -319 c-292 -292 -317 -320 -290 -320 27 0 72 42 354 324 l324 325 -7 101 c-19 294 -200 559 -472 691 -145 70 -336 101 -492 79z m196 -84 c119 -112 204 -348 219 -610 6 -115 6 -119 -13 -111 -182 79 -386 85 -524 15 -21 -11 -44 -20 -50 -20 -15 0 -12 141 5 243 18 100 57 242 85 305 30 68 98 165 137 195 52 39 85 36 141 -17z"
       id="path1" />
    <path
       d="M 460,777 C 412,753 410,738 410,387 V 58 L 468,0 h 381 c 217,0 390,4 405,10 53,20 56,42 56,378 0,205 -4,320 -11,342 -18,49 -55,60 -209,60 H 960 V 640 c 0,-168 -4,-177 -64,-145 -31,17 -34,17 -72,-2 -21,-11 -45,-18 -51,-16 -10,4 -13,45 -13,159 V 790 H 623 c -91,0 -147,-5 -163,-13 z"
       id="path2"
       sodipodi:nodetypes="ssccscscscscccscss" />
    <rect
       style="display:none;fill:#ac9d93;stroke:url(#linearGradient3);stroke-width:88.66;stroke-linejoin:round;stroke-dasharray:none;paint-order:markers stroke fill"
       id="rect2"
       width="804.97333"
       height="698.43768"
       x="455.90033"
       y="-744.82306"
       transform="scale(1,-1)" />
    <rect
       style="display:none;fill:#ac9d93;stroke-width:88.6597;stroke-linejoin:round;stroke-dasharray:none;paint-order:markers stroke fill"
       id="rect3"
       width="209.35185"
       height="314.02777"
       x="760.27777"
       y="-790.57874"
       transform="scale(1,-1)" />
  </g>
</svg>
